<?xml version="1.0" standalone="no"?>
<!DOCTYPE svg PUBLIC "-//W3C//DTD SVG 20010904//EN"
 "http://www.w3.org/TR/2001/REC-SVG-20010904/DTD/svg10.dtd">
<svg version="1.0" xmlns="http://www.w3.org/2000/svg"
 width="311.000000pt" height="311.000000pt" viewBox="0 0 311.000000 311.000000"
 preserveAspectRatio="xMidYMid meet">
<metadata>
Created by potrace 1.14, written by Peter Selinger 2001-2017
</metadata>
<g transform="translate(0.000000,311.000000) scale(0.100000,-0.100000)"
fill="#000000" stroke="none">
<path d="M541 3094 c-154 -41 -298 -178 -385 -365 -32 -71 -62 -159 -71 -211
-2 -13 -7 -36 -10 -53 -3 -16 -8 -65 -11 -107 l-6 -77 185 -185 185 -184 -61
-48 c-168 -134 -285 -378 -303 -632 l-6 -87 186 -185 c102 -102 186 -188 186
-191 0 -4 -17 -18 -37 -31 -181 -121 -313 -399 -324 -678 0 -19 -1 -41 0 -47
2 -21 622 -18 707 3 64 16 154 65 211 114 80 70 165 199 207 315 41 116 52
162 64 276 8 83 6 109 -11 109 -7 0 -82 70 -167 155 l-154 155 490 0 c533 0
554 2 658 58 101 54 223 192 280 315 53 115 96 295 96 403 l0 54 -608 0 -608
0 -152 153 -153 152 813 5 813 5 56 23 c236 95 413 386 436 715 l6 87 -1229
-1 c-1043 0 -1237 -3 -1283 -15z"/>
</g>
</svg>
